<?xml version="1.0" encoding="utf-8"?>
<!-- Generator: Adobe Illustrator 19.0.0, SVG Export Plug-In . SVG Version: 6.00 Build 0)  -->
<svg version="1.1" id="图层_1" xmlns="http://www.w3.org/2000/svg" xmlns:xlink="http://www.w3.org/1999/xlink" x="0px" y="0px"
	 viewBox="0 0 595.3 841.9" style="enable-background:new 0 0 595.3 841.9;" xml:space="preserve">
<style type="text/css">
	.st0{fill:none;stroke:#FFFFFF;stroke-miterlimit:10;}
</style>
<g>
	<path class="st0" d="M404.1,315.5c-6-6-12.3-11.3-19-16.1l0,0c-20.7-15-49.7-10.3-64.7,10.4c-0.4,0.6-0.8,1.2-1.2,1.8
		c0.6-0.8,1.2-1.6,1.9-2.4c32.3-38.3,130.2,83.8,125.1,135.9C453.4,399.3,439.4,350.8,404.1,315.5z"/>
	<path class="st0" d="M321.1,309.2c-0.7,0.8-1.3,1.6-1.9,2.4c-7.8,11.9-9.5,26.3-5.5,39.1c3,9.3,8.8,17.8,17.1,23.8
		c36.6,26.5,117.2,14.8,115.4,70.6c0,0,0,0,0-0.1C451.3,393,353.4,270.9,321.1,309.2z"/>
	<path class="st0" d="M386.5,394.4c3.2,8.4,5,17.6,5,27.1c0,41.6-33.7,75.4-75.4,75.4c-41.6,0-75.4-33.7-75.4-75.4
		c0-1.4,0-2.8,0.1-4.2c-5.9,55.1,32.8,105.4,88.1,113.4c55.7,8.1,107.5-29.7,117-84.9c0-0.2,0.1-0.5,0.1-0.7
		C447.3,411.2,417.9,402.2,386.5,394.4z"/>
	<path class="st0" d="M316.2,496.9c41.6,0,75.4-33.7,75.4-75.4c0-9.6-1.8-18.7-5-27.1c-20.2-5-41.3-9.5-55.7-19.9
		c2.7,1.9,5.3,4.1,7.8,6.5c22.4,22.4,22.4,58.6,0,81c-22.4,22.4-58.6,22.4-81,0c-12.9-12.9-18.3-30.3-16.4-47.1
		c-0.1,0.8-0.2,1.6-0.3,2.3c-0.1,1.4-0.1,2.8-0.1,4.2C240.8,463.2,274.6,496.9,316.2,496.9z"/>
	<path class="st0" d="M243.1,358c-15.7,19.3-15.5,40-13.9,53.9c1.7,15.2,11.5,45.4,23.9,66.2c-10.4-18.8-15-41-11.8-63.9
		C241.2,386.6,236.1,377.7,243.1,358z"/>
	<path class="st0" d="M227.3,469.4c8.9,23.5,37.7,53.2,99.3,61c-32.3-5.5-58.7-25.5-73.4-52.3c-12.4-20.8-22.3-50.9-23.9-66.2
		c-1.5-13.9-1.8-34.6,13.9-53.9c-7.1,19.7-1.9,28.6-1.8,56.2c0,0,0-0.1,0-0.1c0.4-57.9,43.3-55,43.3-129.3
		c-13.5,26.1-44.8,42.7-59.8,47.7c-2.3,39.3-17,72.5-29.2,101.5c14.2-11.1,20.5-25,25.3-42.4c5.2,22.1,5.9,47.9-4.2,69.2
		c-13.8,29.1-26.5,67.6,1.6,87.8c17.2,10.8,36.8,18.3,58.2,21.4c8.5,1.2,17,1.7,25.3,1.5C254.8,569.5,215.2,504.6,227.3,469.4z"/>
	<path class="st0" d="M216.7,460.8c10.1-21.3,9.4-47.1,4.2-69.2c-4.8,17.4-11.1,31.3-25.3,42.4c-16.3,38.7-28,69.9,0.9,97.9
		c6.7,6.2,14,11.8,21.8,16.7C190.2,528.4,202.9,489.8,216.7,460.8z"/>
	<path class="st0" d="M299.7,543.4c21.5,4.3,64.3-8.5,90.9-22.6c-18.4,9.3-39.6,13.2-61.5,10c-0.8-0.1-1.7-0.3-2.5-0.4
		c-61.6-7.8-90.4-37.5-99.3-61c-12.1,35.1,27.5,100.1,74.5,102.1c36.4-0.9,70.4-15,96.4-38.3C377.8,547.9,328.3,556.4,299.7,543.4z"
		/>
	<path class="st0" d="M446.1,445.8c-5.7,33.5-27.1,60.7-55.5,75c-26.6,14.1-69.4,26.9-90.9,22.6c28.6,13,78.1,4.5,98.6-10.2
		C422.9,511.1,440.4,480.8,446.1,445.8z"/>
	<path class="st0" d="M195.6,434c-0.1,0.1-0.2,0.1-0.2,0.2C195.5,434.1,195.5,434,195.6,434c12.2-29,26.9-62.2,29.2-101.5
		c-0.1,0-0.1,0-0.2,0.1c0.1,0,0.1,0,0.2-0.1c0.7-12.8,0.1-26.3-2.3-40.5l0,0c-4.6,38.2-53.8,29.1-72.8,107.9
		c-7.4,50.9,11.7,99.5,46.8,131.9C167.6,503.8,179.3,472.7,195.6,434z"/>
</g>
</svg>
